<svg className="transfer-actions-overflow-menu__icon" viewBox="0 0 32 32">
    <g fill-rule="nonzero">
      <path d="M16 24a8 8 0 1 0 0-16 8 8 0 0 0 0 16zm0 2c-5.523 0-10-4.477-10-10S10.477 6 16 6s10 4.477 10 10-4.477 10-10 10z"></path>
      <path d="M13.115 14.051h1.466c.05-.76.568-1.247 1.372-1.247.786 0 1.31.468 1.31 1.116 0 .618-.262.948-1.035 1.416-.861.506-1.223 1.067-1.167 2.003l.006.424h1.448v-.356c0-.617.23-.935 1.048-1.416.848-.505 1.322-1.172 1.322-2.127 0-1.378-1.142-2.364-2.85-2.364-1.853 0-2.87 1.073-2.92 2.551zm2.745 6.687c.636 0 1.035-.393 1.035-.992 0-.605-.4-.998-1.035-.998-.624 0-1.036.393-1.036.998 0 .6.412.992 1.036.992z"></path>
    </g>
  </svg>