<svg viewBox="0 0 24 24" width="16" height="16" focusable="false">
    <path d="M16.909 5.35002L16.651 5.09202C15.9473 4.38999 14.9938 3.99573 13.9998 3.99573C13.0057 3.99573 12.0522 4.38999 11.3485 5.09202L8.591 7.85002C7.88896 8.55377 7.49471 9.50723 7.49471 10.5013C7.49471 11.4953 7.88896 12.4488 8.591 13.1525L8.849 13.4105C9.4156 13.9785 10.1501 14.3489 10.9437 14.4668C11.7373 14.5847 12.5478 14.4438 13.255 14.065L13.288 14.032C13.4195 13.8867 13.4924 13.6978 13.4924 13.5018C13.4924 13.3058 13.4195 13.1168 13.288 12.9715C13.1662 12.8029 13.0059 12.6658 12.8205 12.5715C12.3883 12.887 11.8577 13.0381 11.3241 12.9977C10.7905 12.9573 10.2888 12.728 9.909 12.351L9.651 12.093C9.2298 11.6708 8.99327 11.0987 8.99327 10.5023C8.99327 9.90586 9.2298 9.33378 9.651 8.91152L12.409 6.15002C12.8313 5.72883 13.4033 5.49229 13.9998 5.49229C14.5962 5.49229 15.1682 5.72883 15.5905 6.15002L15.8485 6.40802C16.2328 6.7948 16.4632 7.30814 16.4969 7.85231C16.5306 8.39649 16.3652 8.93433 16.0315 9.36552C16.0915 9.42002 16.154 9.47152 16.212 9.52902L16.47 9.78702C16.6848 10.0031 16.8805 10.2373 17.055 10.487C17.6893 9.77316 18.0274 8.84418 18.0003 7.88958C17.9732 6.93499 17.5829 6.02671 16.909 5.35002Z"></path>
    <path d="M15.15 10.5911C14.5838 10.0265 13.8521 9.65748 13.0616 9.53778C12.2711 9.41807 11.4629 9.55394 10.755 9.92558L10.711 9.96958C10.5704 10.1102 10.4914 10.301 10.4914 10.4998C10.4914 10.6987 10.5704 10.8894 10.711 11.0301L10.969 11.2881C11.0298 11.3479 11.1012 11.3961 11.1795 11.4301C11.6106 11.1121 12.1416 10.9594 12.6758 11C13.21 11.0406 13.7118 11.2716 14.09 11.6511L14.348 11.9091C14.7692 12.3313 15.0057 12.9034 15.0057 13.4998C15.0057 14.0962 14.7692 14.6683 14.348 15.0906L11.591 17.8501C11.1687 18.2713 10.5967 18.5078 10.0002 18.5078C9.40383 18.5078 8.83176 18.2713 8.40949 17.8501L8.15149 17.5921C7.76722 17.2053 7.53676 16.692 7.50309 16.1478C7.46942 15.6036 7.63484 15.0658 7.96849 14.6346C7.90849 14.5801 7.84599 14.5286 7.78799 14.4711L7.52999 14.2131C7.31521 13.996 7.1198 13.7606 6.94599 13.5096C6.3105 14.2235 5.97161 15.1532 5.99856 16.1086C6.02551 17.064 6.41627 17.9731 7.09099 18.6501L7.34899 18.9081C8.05268 19.6102 9.00616 20.0046 10.0002 20.0046C10.9943 20.0046 11.9478 19.6102 12.6515 18.9081L15.409 16.1501C16.111 15.4463 16.5053 14.4929 16.5053 13.4988C16.5053 12.5048 16.111 11.5513 15.409 10.8476L15.15 10.5911Z"></path>
  </svg>